HIERARCHY
ROOT Hips
{
	OFFSET 0.000000 83.214638 0.000000
	CHANNELS 6 Xposition Yposition Zposition Xrotation Yrotation Zrotation
	JOINT Pelvis
	{
		OFFSET 0.000000 0.000000 0.000000
		CHANNELS 3 Xrotation Yrotation Zrotation
		JOINT LeftUpLeg
		{
			OFFSET 8.479700 -4.795502 -0.379100
			CHANNELS 3 Xrotation Yrotation Zrotation
			JOINT LeftLeg
			{
				OFFSET 0.024144 -32.555107 0.112900
				CHANNELS 3 Xrotation Yrotation Zrotation
				JOINT LeftFoot
				{
					OFFSET -0.024144 -32.638630 -3.012600
					CHANNELS 3 Xrotation Yrotation Zrotation
					JOINT LeftToeBase
					{
						OFFSET 0.970200 -13.225400 11.864200
						CHANNELS 3 Xrotation Yrotation Zrotation
						End Site
						{
							OFFSET 0.000000 12.319262 0.000000
						}
					}
					JOINT LFootTongue
					{
						OFFSET 1.142400 -1.059800 6.665200
						CHANNELS 3 Xrotation Yrotation Zrotation
						End Site
						{
							OFFSET 0.000000 12.319262 0.000000
						}
					}
				}
				JOINT LeftPantLeg
				{
					OFFSET 0.918482 -16.533964 -2.284700
					CHANNELS 3 Xrotation Yrotation Zrotation
					End Site
					{
						OFFSET 0.350399 24.744368 0.000000
					}
				}
			}
		}
		JOINT RightUpLeg
		{
			OFFSET -8.479700 -4.795502 -0.379100
			CHANNELS 3 Xrotation Yrotation Zrotation
			JOINT RightLeg
			{
				OFFSET -0.023144 -32.555092 0.112900
				CHANNELS 3 Xrotation Yrotation Zrotation
				JOINT RightFoot
				{
					OFFSET 0.023144 -32.638641 -3.012700
					CHANNELS 3 Xrotation Yrotation Zrotation
					JOINT RightToeBase
					{
						OFFSET -0.970200 -13.225400 11.864200
						CHANNELS 3 Xrotation Yrotation Zrotation
						End Site
						{
							OFFSET 0.000000 12.319244 0.000000
						}
					}
					JOINT RFootTongue
					{
						OFFSET -1.142200 -1.059800 6.665200
						CHANNELS 3 Xrotation Yrotation Zrotation
						End Site
						{
							OFFSET 0.000000 12.319243 0.000000
						}
					}
				}
				JOINT RightPantLeg
				{
					OFFSET -0.919482 -16.533978 -2.284800
					CHANNELS 3 Xrotation Yrotation Zrotation
					End Site
					{
						OFFSET -0.350400 24.744419 0.000000
					}
				}
			}
		}
	}
	JOINT Spine
	{
		OFFSET 0.000000 7.722000 1.166200
		CHANNELS 3 Xrotation Yrotation Zrotation
		JOINT Spine1
		{
			OFFSET 0.000000 12.024101 0.248800
			CHANNELS 3 Xrotation Yrotation Zrotation
			JOINT Spine2
			{
				OFFSET 0.000000 11.502998 -0.491200
				CHANNELS 3 Xrotation Yrotation Zrotation
				JOINT Neck
				{
					OFFSET 0.000000 18.430702 -3.123100
					CHANNELS 3 Xrotation Yrotation Zrotation
					JOINT Head
					{
						OFFSET 0.000000 9.051102 1.034000
						CHANNELS 3 Xrotation Yrotation Zrotation
						JOINT HairB
						{
							OFFSET 0.208400 24.786102 24.822300
							CHANNELS 3 Xrotation Yrotation Zrotation
							End Site
							{
								OFFSET 0.000000 32.263779 0.000000
							}
						}
						JOINT HairA
						{
							OFFSET -7.081100 24.428299 23.196600
							CHANNELS 3 Xrotation Yrotation Zrotation
							End Site
							{
								OFFSET 0.000000 32.263779 0.000000
							}
						}
						JOINT Hat
						{
							OFFSET 16.728800 15.048294 -15.439601
							CHANNELS 3 Xrotation Yrotation Zrotation
							End Site
							{
								OFFSET 0.000000 32.263779 0.000000
							}
						}
					}
				}
				JOINT LeftShoulder
				{
					OFFSET 6.197800 13.665199 -4.064700
					CHANNELS 3 Xrotation Yrotation Zrotation
					JOINT LeftArm
					{
						OFFSET 7.778100 -0.187103 -1.709300
						CHANNELS 3 Xrotation Yrotation Zrotation
						JOINT LeftForeArm
						{
							OFFSET 22.049376 0.000000 0.000000
							CHANNELS 3 Xrotation Yrotation Zrotation
							JOINT LeftHand
							{
								OFFSET 23.009392 0.000000 0.000000
								CHANNELS 3 Xrotation Yrotation Zrotation
								JOINT LeftHandThumb1
								{
									OFFSET 3.507191 -2.063065 3.133727
									CHANNELS 3 Xrotation Yrotation Zrotation
									JOINT LeftHandThumb2
									{
										OFFSET 3.101337 -1.790558 1.790558
										CHANNELS 3 Xrotation Yrotation Zrotation
										JOINT LeftHandThumb3
										{
											OFFSET 3.058640 -1.765907 1.765906
											CHANNELS 3 Xrotation Yrotation Zrotation
											End Site
											{
												OFFSET -0.415260 3.926476 -0.049563
											}
										}
									}
								}
								JOINT LeftHandIndex1
								{
									OFFSET 11.334419 -0.901459 3.706815
									CHANNELS 3 Xrotation Yrotation Zrotation
									JOINT LeftHandIndex2
									{
										OFFSET 3.283112 0.000000 0.000000
										CHANNELS 3 Xrotation Yrotation Zrotation
										JOINT LeftHandIndex3
										{
											OFFSET 3.323853 0.000000 0.000000
											CHANNELS 3 Xrotation Yrotation Zrotation
											End Site
											{
												OFFSET -1.135597 3.097809 0.402452
											}
										}
									}
								}
								JOINT LeftHandMiddle1
								{
									OFFSET 11.335861 0.000000 0.000000
									CHANNELS 3 Xrotation Yrotation Zrotation
									JOINT LeftHandMiddle2
									{
										OFFSET 3.410492 0.000000 0.000000
										CHANNELS 3 Xrotation Yrotation Zrotation
										JOINT LeftHandMiddle3
										{
											OFFSET 3.312172 0.000000 0.000000
											CHANNELS 3 Xrotation Yrotation Zrotation
											End Site
											{
												OFFSET -1.150200 3.080154 0.400270
											}
										}
									}
								}
								JOINT LeftHandRing1
								{
									OFFSET 11.514786 -0.013176 -3.003090
									CHANNELS 3 Xrotation Yrotation Zrotation
									JOINT LeftHandRing2
									{
										OFFSET 3.053307 0.000000 0.000000
										CHANNELS 3 Xrotation Yrotation Zrotation
										JOINT LeftHandRing3
										{
											OFFSET 3.295807 0.000000 0.000000
											CHANNELS 3 Xrotation Yrotation Zrotation
											End Site
											{
												OFFSET -1.281006 3.013344 0.375733
											}
										}
									}
								}
								JOINT LeftHandPinky1
								{
									OFFSET 10.518692 -0.960396 -5.730441
									CHANNELS 3 Xrotation Yrotation Zrotation
									JOINT LeftHandPinky2
									{
										OFFSET 2.861649 0.000000 0.000000
										CHANNELS 3 Xrotation Yrotation Zrotation
										JOINT LeftHandPinky3
										{
											OFFSET 2.863380 0.000000 0.000000
											CHANNELS 3 Xrotation Yrotation Zrotation
											End Site
											{
												OFFSET -0.843597 2.711159 0.369971
											}
										}
									}
								}
							}
							JOINT LSleeve
							{
								OFFSET 6.676277 -0.344902 -1.011730
								CHANNELS 3 Xrotation Yrotation Zrotation
								End Site
								{
									OFFSET 0.000000 14.885353 0.000000
								}
							}
						}
					}
				}
				JOINT RightShoulder
				{
					OFFSET -6.197800 13.665199 -4.064700
					CHANNELS 3 Xrotation Yrotation Zrotation
					JOINT RightArm
					{
						OFFSET -7.778100 -0.187103 -1.709300
						CHANNELS 3 Xrotation Yrotation Zrotation
						JOINT RightForeArm
						{
							OFFSET -22.049376 0.000000 0.000000
							CHANNELS 3 Xrotation Yrotation Zrotation
							JOINT RightHand
							{
								OFFSET -23.009392 0.000000 0.000000
								CHANNELS 3 Xrotation Yrotation Zrotation
								JOINT RightHandThumb1
								{
									OFFSET -3.507191 -2.063065 3.133727
									CHANNELS 3 Xrotation Yrotation Zrotation
									JOINT RightHandThumb2
									{
										OFFSET -3.101337 -1.790558 1.790558
										CHANNELS 3 Xrotation Yrotation Zrotation
										JOINT RightHandThumb3
										{
											OFFSET -3.058640 -1.765907 1.765906
											CHANNELS 3 Xrotation Yrotation Zrotation
											End Site
											{
												OFFSET 0.415260 3.926476 -0.049563
											}
										}
									}
								}
								JOINT RightHandIndex1
								{
									OFFSET -11.334419 -0.901459 3.706815
									CHANNELS 3 Xrotation Yrotation Zrotation
									JOINT RightHandIndex2
									{
										OFFSET -3.283112 0.000000 0.000000
										CHANNELS 3 Xrotation Yrotation Zrotation
										JOINT RightHandIndex3
										{
											OFFSET -3.323853 0.000000 0.000000
											CHANNELS 3 Xrotation Yrotation Zrotation
											End Site
											{
												OFFSET 1.135597 3.097809 0.402452
											}
										}
									}
								}
								JOINT RightHandMiddle1
								{
									OFFSET -11.335861 0.000000 0.000000
									CHANNELS 3 Xrotation Yrotation Zrotation
									JOINT RightHandMiddle2
									{
										OFFSET -3.410492 0.000000 0.000000
										CHANNELS 3 Xrotation Yrotation Zrotation
										JOINT RightHandMiddle3
										{
											OFFSET -3.312172 0.000000 0.000000
											CHANNELS 3 Xrotation Yrotation Zrotation
											End Site
											{
												OFFSET 1.150200 3.080154 0.400270
											}
										}
									}
								}
								JOINT RightHandRing1
								{
									OFFSET -11.514786 -0.013176 -3.003090
									CHANNELS 3 Xrotation Yrotation Zrotation
									JOINT RightHandRing2
									{
										OFFSET -3.053307 0.000000 0.000000
										CHANNELS 3 Xrotation Yrotation Zrotation
										JOINT RightHandRing3
										{
											OFFSET -3.295807 0.000000 0.000000
											CHANNELS 3 Xrotation Yrotation Zrotation
											End Site
											{
												OFFSET 1.281006 3.013344 0.375733
											}
										}
									}
								}
								JOINT RightHandPinky1
								{
									OFFSET -10.518692 -0.960396 -5.730441
									CHANNELS 3 Xrotation Yrotation Zrotation
									JOINT RightHandPinky2
									{
										OFFSET -2.861649 0.000000 0.000000
										CHANNELS 3 Xrotation Yrotation Zrotation
										JOINT RightHandPinky3
										{
											OFFSET -2.863380 0.000000 0.000000
											CHANNELS 3 Xrotation Yrotation Zrotation
											End Site
											{
												OFFSET 0.843597 2.711159 0.369971
											}
										}
									}
								}
							}
							JOINT RSleeve
							{
								OFFSET -6.676277 -0.344902 -1.011730
								CHANNELS 3 Xrotation Yrotation Zrotation
								End Site
								{
									OFFSET 0.000000 14.885353 0.000000
								}
							}
						}
					}
				}
				JOINT Backpack
				{
					OFFSET 0.000000 -2.471497 36.677502
					CHANNELS 3 Xrotation Yrotation Zrotation
					End Site
					{
						OFFSET 0.000000 20.427315 0.000000
					}
				}
				JOINT Hood
				{
					OFFSET 0.000000 18.754097 -10.431000
					CHANNELS 3 Xrotation Yrotation Zrotation
					JOINT Hood1
					{
						OFFSET 0.000000 -5.011002 -7.685901
						CHANNELS 3 Xrotation Yrotation Zrotation
						End Site
						{
							OFFSET 0.000000 9.175140 0.000000
						}
					}
				}
				JOINT LHoodieString
				{
					OFFSET 5.250500 16.397697 3.089900
					CHANNELS 3 Xrotation Yrotation Zrotation
					JOINT LHoodieString1
					{
						OFFSET 0.257700 -6.364304 3.694600
						CHANNELS 3 Xrotation Yrotation Zrotation
						JOINT LHoodieString2
						{
							OFFSET 0.000000 -9.643799 2.679100
							CHANNELS 3 Xrotation Yrotation Zrotation
							End Site
							{
								OFFSET 0.000000 10.009018 0.000000
							}
						}
					}
				}
				JOINT RHoodieString
				{
					OFFSET -5.250500 16.397697 3.089900
					CHANNELS 3 Xrotation Yrotation Zrotation
					JOINT RHoodieString1
					{
						OFFSET -0.257700 -6.364304 3.694600
						CHANNELS 3 Xrotation Yrotation Zrotation
						JOINT RHoodieString2
						{
							OFFSET 0.000000 -9.643799 2.679100
							CHANNELS 3 Xrotation Yrotation Zrotation
							End Site
							{
								OFFSET 0.000000 10.009018 0.000000
							}
						}
					}
				}
			}
			JOINT LBackpack_Strap
			{
				OFFSET 15.223200 -7.719803 -6.610900
				CHANNELS 3 Xrotation Yrotation Zrotation
				End Site
				{
					OFFSET 0.000000 16.040596 0.000000
				}
			}
			JOINT RBackpack_Strap
			{
				OFFSET -15.223000 -7.719803 -6.610900
				CHANNELS 3 Xrotation Yrotation Zrotation
				End Site
				{
					OFFSET 0.000000 16.040596 0.000000
				}
			}
		}
	}
	JOINT BoyFacialAnim_Joint
	{
		OFFSET 1.000000 -82.208099 -1.550900
		CHANNELS 3 Xrotation Yrotation Zrotation
		End Site
		{
			OFFSET 0.000000 30.012791 0.000000
		}
	}
}
MOTION
Frames: 5
Frame Time: 0.033333
-0.694819 72.662849 0.811242 -6.370129 -3.826686 -2.590940 0.000000 0.000001 -0.000000 -22.927133 6.403371 26.004881 46.176105 -6.804484 8.046596 -19.031310 -0.857978 -23.110215 0.000000 0.000000 -0.000000 0.000000 0.000000 -0.000000 0.000000 0.000001 0.000002 -26.397961 -0.641876 -3.106308 58.037422 5.898061 -7.700786 -25.533033 -1.562099 8.839006 -0.000000 -0.000000 0.000000 -0.000000 -0.000000 0.000000 -0.000000 -0.000000 -0.000001 20.322586 5.396065 2.137490 7.066144 1.638588 0.061134 7.069865 1.619822 0.066329 2.922597 -2.262146 3.465373 -26.270781 -9.443788 0.364978 0.000000 -0.000001 -0.000000 0.000000 -0.000001 -0.000000 0.000000 -0.000001 -0.000000 0.323741 0.247651 -5.499165 1.701105 -12.349265 -48.459881 -0.000016 -133.129512 -0.000026 32.846093 19.655203 -15.613773 33.555924 13.229852 -1.093519 46.278264 53.322706 -39.139788 0.000001 0.000002 -0.000003 7.843457 6.813922 -98.057324 7.962747 6.796056 -99.064237 0.000000 -0.000003 -0.000001 7.841504 6.814183 -98.041095 7.964647 6.795762 -99.080432 -0.000000 0.000001 -0.000005 7.843425 6.813890 -98.057303 7.962716 6.796065 -99.064230 -0.000002 -0.000001 -0.000004 11.884165 6.247156 -98.006637 7.958084 2.710170 -99.007861 0.000000 0.000001 -0.000000 -0.000000 -0.000001 -0.000003 0.055533 -2.866061 2.240042 -19.092908 60.932398 55.708187 0.000047 109.649589 -0.000051 40.212373 -15.399677 -9.230742 43.155731 3.523209 3.090584 62.920877 -20.728656 19.962145 0.000004 0.000003 -0.000004 8.518584 -6.769323 103.092874 8.518577 -6.769308 103.092922 -0.000003 -0.000004 0.000005 8.518570 -6.769318 103.092874 8.518568 -6.769295 103.092915 0.000002 0.000000 0.000002 8.518570 -6.769293 103.092881 8.518557 -6.769300 103.092929 -0.000001 0.000001 0.000001 8.518564 -6.769279 103.092874 8.518580 -6.769316 103.092915 0.000001 -0.000003 -0.000000 0.000001 -0.000000 0.000003 -0.000002 0.000000 -0.000000 -0.000002 0.000000 -0.000000 -0.000002 0.000000 -0.000000 -0.000002 0.000000 -0.000000 -0.000002 0.000000 -0.000000 -0.000002 -0.000000 -0.000000 -0.000002 0.000000 -0.000000 -0.000002 0.000000 -0.000000 -0.000002 -0.000000 -0.000000 -0.000001 -0.000000 -0.000000 -0.000001 -0.000000 -0.000000 0.000000 0.000001 -0.000000 
0.150592 72.688583 0.766197 -5.644225 -4.963360 -3.082581 -0.000000 0.000000 0.000000 -23.684413 5.976716 25.738514 47.629720 -6.476757 7.732724 -19.654464 0.892177 -22.239700 -0.000000 0.000000 0.000000 -0.000000 0.000000 0.000000 -0.000001 0.000000 0.000002 -27.405101 -0.951797 -3.876002 57.432534 7.041075 -7.183493 -24.785838 -1.112733 8.913970 0.000000 -0.000000 -0.000000 0.000000 -0.000000 -0.000000 0.000001 -0.000000 0.000000 18.122109 4.904636 2.315580 6.997186 1.545653 -0.588000 7.010321 1.487978 -0.571343 2.576127 -2.252780 3.812372 -24.501285 -9.461954 1.509605 -0.000000 0.000000 -0.000000 -0.000000 0.000000 -0.000000 -0.000000 0.000000 -0.000000 0.353645 -1.000918 -3.345960 -7.154525 -10.848068 -48.009881 0.000010 -129.322583 -0.000012 35.194749 18.457908 -18.464691 33.555927 13.229858 -1.093521 46.278268 53.322706 -39.139788 -0.000001 -0.000001 -0.000001 7.843457 6.813926 -98.057324 7.962747 6.796057 -99.064237 -0.000001 -0.000001 -0.000002 7.841504 6.814183 -98.041095 7.964643 6.795765 -99.080432 0.000001 -0.000002 -0.000000 7.843425 6.813889 -98.057303 7.962717 6.796061 -99.064224 0.000000 0.000000 -0.000000 11.884164 6.247157 -98.006637 7.958084 2.710171 -99.007854 -0.000000 -0.000000 0.000003 0.000002 0.000003 0.000003 0.058576 -1.957517 0.940660 -32.706067 60.353812 65.748173 0.000002 102.971092 -0.000004 39.923613 -13.490400 -12.046286 43.155727 3.523208 3.090579 62.920877 -20.728659 19.962145 0.000003 0.000001 0.000003 8.518585 -6.769320 103.092874 8.518577 -6.769306 103.092915 -0.000001 0.000000 0.000002 8.518569 -6.769314 103.092867 8.518567 -6.769293 103.092915 -0.000000 0.000001 -0.000000 8.518570 -6.769291 103.092881 8.518557 -6.769299 103.092929 -0.000000 0.000001 0.000004 8.518563 -6.769276 103.092874 8.518579 -6.769311 103.092915 -0.000000 0.000001 0.000002 0.000001 -0.000002 -0.000000 -0.000000 0.000000 -0.000000 -0.000000 0.000000 -0.000000 -0.000000 0.000000 -0.000000 -0.000000 0.000000 -0.000000 -0.000000 0.000000 -0.000000 -0.000000 -0.000000 0.000000 -0.000000 0.000000 -0.000000 -0.000000 0.000000 -0.000000 -0.000000 -0.000000 0.000000 0.000002 0.000000 0.000000 0.000002 0.000000 0.000000 -0.000000 0.000000 0.000000 
1.046885 72.924492 0.811481 -4.854738 -6.095041 -3.499762 -0.000000 0.000000 -0.000000 -24.091404 5.780193 25.348552 48.263920 -6.060881 7.291396 -20.002381 2.454341 -21.316930 -0.000000 -0.000000 0.000000 -0.000000 -0.000000 0.000000 0.000000 -0.000001 -0.000002 -28.044548 -1.395953 -4.792149 56.012991 8.105487 -6.635385 -23.712361 -0.403372 9.116195 -0.000000 -0.000000 0.000000 -0.000000 -0.000000 0.000000 -0.000001 -0.000000 -0.000000 15.751289 4.462823 2.362971 6.823481 1.460141 -1.111375 6.844048 1.372705 -1.084871 2.467751 -2.223740 4.113656 -22.350734 -9.419514 2.711906 0.000000 0.000001 0.000000 0.000000 0.000001 0.000000 0.000000 0.000001 0.000000 0.460791 -2.318686 -1.291469 -15.723205 -10.146473 -46.994399 0.000026 -124.344714 0.000028 37.439163 16.916893 -21.083976 33.555924 13.229856 -1.093520 46.278268 53.322710 -39.139784 0.000000 -0.000001 0.000002 7.843456 6.813924 -98.057324 7.962751 6.796056 -99.064230 0.000000 -0.000002 -0.000002 7.841503 6.814183 -98.041102 7.964646 6.795766 -99.080432 0.000000 0.000001 -0.000001 7.843425 6.813891 -98.057303 7.962720 6.796062 -99.064224 -0.000002 0.000001 -0.000004 11.884164 6.247158 -98.006644 7.958083 2.710169 -99.007854 -0.000001 -0.000000 0.000001 -0.000000 -0.000000 -0.000001 0.094697 -0.900830 -0.373539 -45.640000 58.631594 74.976667 -0.000018 94.939377 0.000015 39.336890 -11.224923 -15.209950 43.155724 3.523209 3.090580 62.920871 -20.728651 19.962141 0.000001 0.000000 0.000004 8.518584 -6.769322 103.092874 8.518577 -6.769309 103.092929 -0.000001 0.000002 0.000000 8.518569 -6.769319 103.092867 8.518573 -6.769295 103.092922 0.000000 -0.000001 0.000001 8.518573 -6.769294 103.092881 8.518562 -6.769299 103.092936 0.000002 -0.000002 0.000000 8.518563 -6.769280 103.092881 8.518576 -6.769315 103.092915 -0.000001 -0.000003 -0.000000 0.000004 0.000001 -0.000000 -0.000000 -0.000000 -0.000000 -0.000000 -0.000000 -0.000000 -0.000000 -0.000000 -0.000000 -0.000000 -0.000000 -0.000000 -0.000000 -0.000000 -0.000000 -0.000000 0.000000 -0.000000 -0.000000 -0.000000 -0.000000 -0.000000 -0.000000 -0.000000 -0.000000 0.000000 -0.000000 0.000003 0.000000 -0.000000 0.000003 0.000000 -0.000000 -0.000000 0.000000 -0.000000 
1.972569 73.377449 0.953431 -4.103232 -7.221664 -3.942711 0.000000 -0.000000 0.000000 -24.084466 5.865479 24.953078 48.053249 -5.517908 6.829451 -20.075980 3.696557 -20.423683 0.000000 -0.000000 -0.000000 0.000000 -0.000000 -0.000000 0.000001 0.000001 0.000002 -28.129289 -1.971257 -5.668495 53.656935 8.944224 -6.086014 -22.287307 0.613139 9.507809 0.000000 -0.000000 0.000000 0.000000 -0.000000 0.000000 -0.000000 -0.000000 -0.000000 13.440856 4.107923 2.233954 6.534231 1.386219 -1.454911 6.559491 1.282730 -1.421848 2.635887 -2.184116 4.342077 -19.924196 -9.441563 4.019025 -0.000000 0.000000 -0.000000 -0.000000 0.000000 -0.000000 -0.000000 0.000000 -0.000000 0.625983 -3.661371 0.542798 -23.733791 -10.478019 -45.693204 0.000031 -117.948078 0.000028 39.287460 14.993151 -23.229562 33.555924 13.229854 -1.093520 46.278271 53.322713 -39.139791 -0.000001 -0.000000 0.000002 7.843458 6.813922 -98.057324 7.962747 6.796055 -99.064230 -0.000002 0.000002 -0.000005 7.841505 6.814183 -98.041095 7.964645 6.795763 -99.080432 0.000002 -0.000001 -0.000003 7.843426 6.813891 -98.057303 7.962717 6.796061 -99.064224 -0.000000 0.000002 -0.000002 11.884166 6.247157 -98.006637 7.958084 2.710170 -99.007854 -0.000000 -0.000001 0.000003 -0.000002 0.000001 0.000001 0.174219 0.332032 -1.669607 -56.978285 55.922437 82.682459 0.000104 85.508600 -0.000125 38.609280 -8.589060 -18.694457 43.155731 3.523207 3.090585 62.920877 -20.728658 19.962147 0.000001 -0.000002 0.000001 8.518587 -6.769326 103.092874 8.518574 -6.769306 103.092922 -0.000000 0.000006 0.000001 8.518569 -6.769315 103.092874 8.518567 -6.769296 103.092915 0.000001 -0.000002 -0.000001 8.518571 -6.769295 103.092874 8.518566 -6.769298 103.092922 -0.000000 0.000001 0.000000 8.518563 -6.769278 103.092874 8.518578 -6.769317 103.092922 -0.000001 -0.000004 0.000001 -0.000000 0.000001 0.000002 0.000002 -0.000000 0.000000 0.000002 -0.000000 0.000000 0.000002 -0.000000 0.000000 0.000002 -0.000000 0.000000 0.000002 -0.000000 0.000000 0.000002 -0.000000 0.000000 0.000002 -0.000000 0.000000 0.000002 -0.000000 0.000000 0.000002 -0.000000 0.000000 0.000002 0.000000 0.000000 0.000002 0.000000 0.000000 0.000000 -0.000000 0.000000 
2.906229 74.024857 1.182288 -3.467848 -8.343462 -4.497859 -0.000000 0.000000 0.000000 -23.652575 6.236100 24.664961 47.055687 -4.868789 6.407819 -19.896503 4.545119 -19.601369 0.000000 0.000000 -0.000000 0.000000 0.000000 0.000000 -0.000002 0.000001 0.000000 -27.547843 -2.672766 -6.342251 50.320756 9.402550 -5.562669 -20.507196 1.978997 10.133859 0.000000 -0.000000 -0.000000 0.000000 -0.000000 -0.000000 0.000000 -0.000000 -0.000001 11.370503 3.860977 1.916902 6.133991 1.325851 -1.595317 6.160913 1.222214 -1.559970 3.080145 -2.142466 4.483954 -17.335008 -9.626846 5.457407 0.000000 -0.000001 0.000000 0.000000 -0.000001 0.000000 0.000000 -0.000001 0.000000 0.821701 -4.992394 2.083430 -31.025643 -11.887641 -44.412011 -0.000002 -110.093463 -0.000004 40.550990 12.730248 -24.774018 33.555927 13.229854 -1.093520 46.278264 53.322706 -39.139788 0.000005 0.000002 -0.000001 7.843457 6.813918 -98.057324 7.962746 6.796055 -99.064230 -0.000001 0.000001 0.000000 7.841503 6.814181 -98.041095 7.964647 6.795763 -99.080425 0.000002 -0.000002 -0.000000 7.843426 6.813888 -98.057303 7.962716 6.796062 -99.064230 -0.000000 0.000000 -0.000002 11.884162 6.247154 -98.006637 7.958086 2.710170 -99.007861 -0.000000 -0.000001 0.000001 -0.000001 0.000001 -0.000002 0.307443 1.743067 -2.923954 -66.413139 52.441346 88.656416 0.000088 74.743716 -0.000110 37.896140 -5.557835 -22.414698 43.155727 3.523211 3.090579 62.920871 -20.728649 19.962148 0.000003 -0.000002 0.000001 8.518585 -6.769320 103.092874 8.518574 -6.769304 103.092922 0.000002 0.000000 0.000002 8.518568 -6.769313 103.092867 8.518568 -6.769292 103.092915 0.000000 -0.000001 -0.000000 8.518571 -6.769291 103.092881 8.518552 -6.769298 103.092929 -0.000001 0.000001 0.000004 8.518563 -6.769276 103.092881 8.518576 -6.769318 103.092908 -0.000002 -0.000001 0.000000 -0.000001 0.000001 -0.000004 0.000001 -0.000000 -0.000000 0.000001 -0.000000 -0.000000 0.000001 -0.000000 -0.000000 0.000001 -0.000000 -0.000000 0.000001 -0.000000 -0.000000 -0.000000 0.000000 -0.000000 0.000001 -0.000000 -0.000000 0.000001 -0.000000 -0.000000 -0.000000 0.000000 -0.000000 -0.000001 -0.000000 -0.000000 -0.000001 -0.000000 -0.000000 -0.000000 0.000000 0.000000 
